<svg width="16" height="16" viewBox="0 0 16 16" fill="none" xmlns="http://www.w3.org/2000/svg">
<path fill-rule="evenodd" clip-rule="evenodd" d="M0.706956 0.707107C1.09748 0.316583 1.73065 0.316583 2.12117 0.707107L14.707 13.2929C15.0975 13.6834 15.0975 14.3166 14.707 14.7071C14.3164 15.0976 13.6833 15.0976 13.2927 14.7071L0.706956 2.12132C0.316431 1.7308 0.316431 1.09763 0.706956 0.707107Z" fill="#909499"/>
<path fill-rule="evenodd" clip-rule="evenodd" d="M14.7071 0.707107C14.3166 0.316583 13.6834 0.316583 13.2929 0.707107L0.707107 13.2929C0.316583 13.6834 0.316582 14.3166 0.707107 14.7071C1.09763 15.0976 1.7308 15.0976 2.12132 14.7071L14.7071 2.12132C15.0976 1.7308 15.0976 1.09763 14.7071 0.707107Z" fill="#909499"/>
</svg>
