<svg width="24" height="24" viewBox="0 0 24 24" fill="none" xmlns="http://www.w3.org/2000/svg">
<path d="M21.0002 13C20.735 13 20.4806 12.8946 20.2931 12.7071C20.1055 12.5196 20.0002 12.2652 20.0002 12V9.41L13.7102 15.71C13.6172 15.8037 13.5066 15.8781 13.3848 15.9289C13.2629 15.9797 13.1322 16.0058 13.0002 16.0058C12.8682 16.0058 12.7375 15.9797 12.6156 15.9289C12.4937 15.8781 12.3831 15.8037 12.2902 15.71L9.00019 12.41L3.71019 17.71C3.52188 17.8983 3.26649 18.0041 3.00019 18.0041C2.73388 18.0041 2.47849 17.8983 2.29019 17.71C2.10188 17.5217 1.99609 17.2663 1.99609 17C1.99609 16.7337 2.10188 16.4783 2.29019 16.29L8.29019 10.29C8.38315 10.1963 8.49375 10.1219 8.61561 10.0711C8.73747 10.0203 8.86817 9.9942 9.00019 9.9942C9.1322 9.9942 9.2629 10.0203 9.38476 10.0711C9.50662 10.1219 9.61722 10.1963 9.71019 10.29L13.0002 13.59L18.5902 8H16.0002C15.735 8 15.4806 7.89464 15.2931 7.70711C15.1055 7.51957 15.0002 7.26521 15.0002 7C15.0002 6.73478 15.1055 6.48043 15.2931 6.29289C15.4806 6.10535 15.735 6 16.0002 6H21.0002C21.1309 6.00158 21.26 6.02876 21.3802 6.08C21.6245 6.18147 21.8187 6.37565 21.9202 6.62C21.9714 6.74022 21.9986 6.86932 22.0002 7V12C22.0002 12.2652 21.8948 12.5196 21.7073 12.7071C21.5198 12.8946 21.2654 13 21.0002 13Z" fill="#06BF23"/>
</svg>
