<svg width="54" height="54" viewBox="0 0 54 54" fill="none" xmlns="http://www.w3.org/2000/svg">
<path d="M0 26.7983C0 41.5749 12.0221 53.5967 26.7983 53.5967C41.5746 53.5967 53.5967 41.5746 53.5967 26.7983C53.5981 12.0218 41.5763 0 26.7983 0C12.0232 0 0 12.0212 0 26.7983" fill="black"/>
<path d="M26.7976 53.009C41.2725 53.009 53.0082 41.2734 53.0082 26.7969C53.0082 12.3233 41.2725 0.587646 26.7976 0.587646C12.3226 0.587815 0.586914 12.3233 0.586914 26.7983C0.586914 41.2747 12.3224 53.0104 26.799 53.0104" fill="#A5ACAF"/>
<path d="M26.798 48.7283C38.8736 48.7283 48.6633 38.9389 48.6633 26.863C48.6633 14.7879 38.8745 4.99622 26.798 4.99622C14.7215 4.99622 4.93262 14.7865 4.93262 26.8616C4.93262 38.9372 14.722 48.7269 26.798 48.7269" fill="white"/>
<path d="M26.9132 26.8927C27.1658 17.9369 35.6258 15.8338 37.7512 16.0266C32.5116 15.7421 27.3402 13.528 26.9413 5.24207C26.3092 12.9478 23.2173 15.1385 16.0928 16.0529C21.1817 16.3106 26.3337 18.3243 26.9132 26.8925" fill="#EEAD1E"/>
<path d="M37.781 37.9774C38.0334 29.0216 46.3449 26.8116 48.4707 27.0045C43.2135 26.8099 38.15 24.3115 37.7511 16.0262C37.1199 23.732 34.0385 25.9779 26.9131 26.8923C32.002 27.15 37.2014 29.4092 37.7808 37.9774" fill="#C60C30"/>
<path d="M27.0452 48.6374C27.2971 39.6799 35.6558 37.7845 37.7823 37.9774C32.5426 37.6922 27.3133 35.1785 26.9146 26.8922C26.2825 34.5988 23.2818 36.9132 16.1572 37.8274C21.2461 38.0869 26.4649 40.0708 27.0452 48.6374" fill="#00539B"/>
<path d="M9.24514 23.5779C9.03821 23.5793 8.82758 23.6233 8.63053 23.7098C8.39363 23.8135 8.22961 24.0015 8.11386 24.2077C7.99812 24.4163 7.93301 24.582 7.91853 24.8201C7.88839 25.3229 8.13978 25.8527 8.613 26.1481C8.94456 26.3555 9.18745 26.3826 9.46896 26.6533C9.61845 26.7956 9.60649 27.1651 9.55826 27.2501C9.42142 27.4924 9.06571 27.4032 8.9783 27.3116C8.89029 27.2194 8.85179 26.8872 8.86927 26.7558L7.93056 26.7612C7.89439 27.1748 7.92283 27.4292 8.04822 27.7095C8.17541 27.9952 8.35382 28.1025 8.5853 28.2134C9.08806 28.4521 9.76624 28.4322 10.2557 27.9752C10.3757 27.8637 10.419 27.7329 10.419 27.7329C10.5329 27.4562 10.6602 27.1428 10.5716 26.6377C10.53 26.4014 10.4274 26.2079 10.375 26.1337C10.2008 25.8878 10.0717 25.7762 9.60573 25.549C9.61658 25.549 9.45868 25.4814 9.47012 25.4814C8.97701 25.3241 8.78115 25.0228 8.93427 24.7021C9.01867 24.5236 9.33811 24.4524 9.47917 24.5809C9.57441 24.6682 9.59612 24.8551 9.60395 24.9992L9.93256 24.9968H10.5365C10.5491 24.5809 10.46 24.3469 10.3707 24.1902C10.1374 23.7782 9.70033 23.5749 9.24505 23.5779L9.24514 23.5779ZM17.2261 23.6639V28.2853H18.1117V23.6664L17.2261 23.664V23.6639ZM11.8948 24.195L11.0159 24.6773V24.9798L10.6681 24.9908L10.6717 25.7479L10.9996 25.737L11.0063 27.4773C11.0099 28.4014 11.8019 28.2592 12.2204 28.2694L12.2211 27.2869C11.8666 27.2923 11.8985 27.2217 11.8985 27.0451V25.7539L12.2367 25.7593L12.2331 24.9835L11.8985 24.9908L11.8949 24.195L11.8948 24.195ZM23.5837 24.9377C23.4345 24.9399 23.2847 24.9714 23.1455 25.039C23.0117 25.1035 22.914 25.0896 22.6903 25.3663C22.5842 25.4971 22.5541 25.6912 22.5439 25.8594C22.5228 26.215 22.6403 26.684 23.1244 26.8064C23.3951 26.8745 23.7031 26.9102 23.8472 27.1278C23.9262 27.2465 23.9032 27.2959 23.8676 27.3869C23.817 27.5159 23.5295 27.5142 23.4144 27.469C23.3005 27.4256 23.2293 27.2923 23.2444 27.1772L22.5077 27.182C22.5216 27.4665 22.524 27.639 22.6325 27.8493C22.7374 28.0531 22.9489 28.2013 23.143 28.2604C23.5385 28.3804 23.9737 28.3593 24.2962 28.1604C24.3553 28.1236 24.5211 27.9728 24.5887 27.8517C24.6996 27.6491 24.7653 27.3899 24.6658 27.0499C24.6188 26.8859 24.6139 26.8673 24.5844 26.8101C24.409 26.4755 24.1835 26.4104 23.9502 26.332C23.958 26.332 23.7332 26.2801 23.741 26.2801C23.3299 26.2337 23.3046 26.0011 23.3589 25.8432C23.4041 25.7123 23.5084 25.6689 23.6434 25.6689C23.7579 25.6702 23.8706 25.7503 23.8917 25.8347C23.9062 25.8949 23.9045 25.9643 23.9045 26.0433L24.6664 26.0468C24.6604 25.7502 24.6061 25.4428 24.4403 25.2758C24.2372 25.0698 23.9119 24.9328 23.5836 24.9376L23.5837 24.9377ZM22.1738 24.954C21.8832 25.0191 21.806 25.1542 21.6776 25.3802L21.6739 24.9685L20.8204 24.9775V28.2569H21.6902V26.3562C21.6998 26.1584 21.6511 25.9009 22.3859 25.9528V24.9539H22.1737L22.1738 24.954ZM13.5209 24.9837C13.3451 24.9802 13.1538 25.0197 12.907 25.1277C12.6176 25.3181 12.4501 25.5797 12.4663 25.88V27.4798C12.4826 27.8765 12.6545 28.1579 13.0083 28.2876C13.2772 28.3448 13.5652 28.431 14.0258 28.2876C14.4598 28.1381 14.5665 27.859 14.5599 27.6021L14.5581 27.2157L13.8354 27.2194V27.3128C13.8191 27.6836 13.1764 27.6233 13.1746 27.3291L13.1759 26.8782H14.5598V25.8631C14.5556 25.5297 14.3965 25.291 14.0421 25.0981C13.857 25.0339 13.6967 24.9872 13.5209 24.9837L13.5209 24.9837ZM15.9203 24.9837C15.7445 24.9802 15.5534 25.0197 15.3062 25.1277C15.0168 25.3181 14.8493 25.5797 14.8655 25.88V27.4798C14.8818 27.8765 15.0535 28.1579 15.4074 28.2876C15.6769 28.3448 15.9645 28.431 16.425 28.2876C16.8591 28.1381 16.9651 27.859 16.9591 27.6021L16.9573 27.2157L16.2345 27.2194V27.3128C16.2182 27.6836 15.5756 27.6233 15.5738 27.3291L15.5751 26.8782H16.9591V25.8631C16.9548 25.5297 16.7958 25.291 16.4413 25.0981C16.2562 25.0339 16.096 24.9872 15.9202 24.9837L15.9203 24.9837ZM19.443 24.9837C19.2672 24.9802 19.0762 25.0197 18.829 25.1277C18.5391 25.3181 18.3721 25.5797 18.3884 25.88V27.4798C18.4047 27.8765 18.5764 28.1579 18.9303 28.2876C19.1997 28.3448 19.4873 28.431 19.9479 28.2876C20.3819 28.1381 20.4885 27.859 20.4813 27.6021L20.4801 27.2157L19.7568 27.2194V27.3128C19.7411 27.6836 19.0985 27.6233 19.0973 27.3291L19.0942 26.8782H20.4819V25.8631C20.4783 25.5297 20.3186 25.291 19.9647 25.0981C19.7791 25.0339 19.6187 24.9872 19.443 24.9837L19.443 24.9837ZM13.507 25.737C13.7128 25.7269 13.933 25.8907 13.8613 26.1952L13.2065 26.1928C13.1551 25.8904 13.3255 25.746 13.507 25.7371L13.507 25.737ZM15.9061 25.737C16.1119 25.7269 16.332 25.8907 16.2603 26.1952L15.6057 26.1928C15.5543 25.8904 15.7245 25.746 15.9061 25.7371V25.737ZM19.4289 25.737C19.6347 25.7269 19.8549 25.8907 19.7832 26.1952L19.1286 26.1928C19.0771 25.8904 19.2474 25.746 19.4289 25.7371V25.737Z" fill="black"/>
</svg>
