<svg width="131" height="32" viewBox="0 0 131 32" fill="none" xmlns="http://www.w3.org/2000/svg">
<path d="M53.7928 14.4092L54.5233 13.1143L52.3153 12.1431L54.5233 11.1719L53.7928 9.86865L51.8338 11.3379L52.0995 8.89746H50.6219L50.8876 11.3379L48.9286 9.86865L48.1981 11.1719L50.4144 12.1431L48.1981 13.1143L48.9286 14.4092L50.8793 12.9731L50.6219 15.3721H52.0995L51.8421 12.9814L53.7928 14.4092ZM61.9492 14.4092L62.6797 13.1143L60.4717 12.1431L62.6797 11.1719L61.9492 9.86865L59.9903 11.3379L60.2559 8.89746H58.7783L59.044 11.3379L57.085 9.86865L56.3545 11.1719L58.5708 12.1431L56.3545 13.1143L57.085 14.4092L59.0357 12.9731L58.7783 15.3721H60.2559L59.9986 12.9814L61.9492 14.4092ZM70.1056 14.4092L70.8361 13.1143L68.6281 12.1431L70.8361 11.1719L70.1056 9.86865L68.1467 11.3379L68.4123 8.89746H66.9347L67.2004 11.3379L65.2414 9.86865L64.5109 11.1719L66.7272 12.1431L64.5109 13.1143L65.2414 14.4092L67.1921 12.9731L66.9347 15.3721H68.4123L68.155 12.9814L70.1056 14.4092ZM78.2621 14.4092L78.9925 13.1143L76.7845 12.1431L78.9925 11.1719L78.2621 9.86865L76.3031 11.3379L76.5687 8.89746H75.0912L75.3568 11.3379L73.3978 9.86865L72.6673 11.1719L74.8836 12.1431L72.6673 13.1143L73.3978 14.4092L75.3485 12.9731L75.0912 15.3721H76.5687L76.3114 12.9814L78.2621 14.4092ZM86.5098 17.1401V15.2061H81.0562V17.1401H86.5098ZM93.0309 21.2988C95.6872 21.2988 97.4718 19.5889 97.4718 17.0903C97.4718 14.7412 95.8615 13.0728 93.5871 13.0728C92.4333 13.0728 91.5866 13.4795 91.0553 14.1934H90.9142L91.2047 10.8315H96.758V9.02197H89.5446L88.922 15.9116H90.8644C91.3044 15.1729 92.0763 14.7329 93.0641 14.7329C94.4421 14.7329 95.4049 15.7041 95.4049 17.1401C95.4049 18.5679 94.4504 19.5142 93.0475 19.5142C91.8107 19.5142 90.8727 18.7837 90.7399 17.6797H88.7311C88.8307 19.7881 90.549 21.2988 93.0309 21.2988ZM104.865 21H106.915V18.7671H108.534V16.9575H106.915V9.02197H103.893C101.777 12.2095 100.092 14.874 99.0125 16.8579V18.7671H104.865V21ZM100.996 16.8828C102.391 14.4258 103.636 12.4585 104.782 10.7651H104.898V17.0073H100.996V16.8828ZM113.087 15.6875H114.59C116.067 15.6875 116.972 16.4097 116.972 17.5801C116.972 18.709 116.009 19.4976 114.64 19.4976C113.262 19.4976 112.315 18.792 112.224 17.6797H110.174C110.282 19.8711 112.041 21.2988 114.623 21.2988C117.229 21.2988 119.155 19.7715 119.155 17.7129C119.155 16.1191 118.143 15.0068 116.507 14.8159V14.6748C117.835 14.3926 118.674 13.3218 118.674 11.9189C118.674 10.0845 116.939 8.72314 114.615 8.72314C112.124 8.72314 110.514 10.0928 110.406 12.2925H112.407C112.49 11.1636 113.312 10.4663 114.548 10.4663C115.802 10.4663 116.607 11.1553 116.607 12.2178C116.607 13.2886 115.769 14.0273 114.548 14.0273H113.087V15.6875ZM123.8 15.6875H125.303C126.78 15.6875 127.685 16.4097 127.685 17.5801C127.685 18.709 126.722 19.4976 125.353 19.4976C123.975 19.4976 123.028 18.792 122.937 17.6797H120.887C120.995 19.8711 122.755 21.2988 125.336 21.2988C127.943 21.2988 129.868 19.7715 129.868 17.7129C129.868 16.1191 128.856 15.0068 127.22 14.8159V14.6748C128.548 14.3926 129.387 13.3218 129.387 11.9189C129.387 10.0845 127.652 8.72314 125.328 8.72314C122.838 8.72314 121.227 10.0928 121.119 12.2925H123.12C123.203 11.1636 124.025 10.4663 125.261 10.4663C126.515 10.4663 127.32 11.1553 127.32 12.2178C127.32 13.2886 126.482 14.0273 125.261 14.0273H123.8V15.6875Z" fill="#666666"/>
<path d="M28.0971 19.3498V19.0966H28.2075V19.0443H27.9448V19.0966H28.0486V19.3498H28.0971ZM28.607 19.3498V19.0443H28.5276L28.4348 19.2625L28.3421 19.0443H28.2627V19.3498H28.3201V19.1184L28.4062 19.317H28.4658L28.5518 19.1184V19.3498H28.607Z" fill="#F79E1B"/>
<path d="M20.3163 8.51862H11.6875V22.4512H20.3163V8.51862Z" fill="#FF5F00"/>
<path d="M12.5762 15.486C12.5751 14.1445 12.8827 12.8202 13.4758 11.6135C14.0688 10.4068 14.9318 9.34931 15.9993 8.52099C14.6771 7.49376 13.0893 6.85499 11.4173 6.67768C9.74527 6.50037 8.05652 6.79168 6.54404 7.5183C5.03157 8.24493 3.7564 9.37757 2.86426 10.7868C1.97213 12.196 1.49902 13.8248 1.49902 15.4873C1.49902 17.1497 1.97213 18.7786 2.86426 20.1878C3.7564 21.597 5.03157 22.7296 6.54404 23.4562C8.05652 24.1829 9.74527 24.4742 11.4173 24.2969C13.0893 24.1196 14.6771 23.4808 15.9993 22.4536C14.9315 21.625 14.0683 20.5671 13.4752 19.3599C12.8822 18.1528 12.5747 16.828 12.5762 15.486Z" fill="#EB001B"/>
<path d="M30.5011 15.4861C30.5011 17.1487 30.0279 18.7777 29.1356 20.1869C28.2433 21.5961 26.9679 22.7288 25.4552 23.4553C23.9426 24.1818 22.2537 24.4729 20.5815 24.2954C18.9094 24.1178 17.3216 23.4787 15.9995 22.4512C17.0666 21.6221 17.9293 20.5643 18.5225 19.3575C19.1157 18.1508 19.424 16.8266 19.424 15.4849C19.424 14.1432 19.1157 12.819 18.5225 11.6122C17.9293 10.4055 17.0666 9.34765 15.9995 8.5186C17.3216 7.49105 18.9094 6.85197 20.5815 6.6744C22.2537 6.49684 23.9426 6.78795 25.4552 7.51448C26.9679 8.241 28.2433 9.37362 29.1356 10.7829C30.0279 12.1921 30.5011 13.8211 30.5011 15.4837V15.4861Z" fill="#F79E1B"/>
</svg>
