<svg width="102" height="99" viewBox="0 0 102 99" fill="none" xmlns="http://www.w3.org/2000/svg">
<rect width="89" height="89" rx="16" fill="#F2F3F5"/>
<path d="M56.5003 42.5H55.167V41.1667C55.167 40.8131 55.0265 40.4739 54.7765 40.2239C54.5264 39.9738 54.1873 39.8334 53.8337 39.8334C53.48 39.8334 53.1409 39.9738 52.8908 40.2239C52.6408 40.4739 52.5003 40.8131 52.5003 41.1667V42.5H51.167C50.8134 42.5 50.4742 42.6405 50.2242 42.8905C49.9741 43.1406 49.8337 43.4797 49.8337 43.8334C49.8337 44.187 49.9741 44.5261 50.2242 44.7762C50.4742 45.0262 50.8134 45.1667 51.167 45.1667H52.5003V46.5C52.5003 46.8536 52.6408 47.1928 52.8908 47.4428C53.1409 47.6929 53.48 47.8334 53.8337 47.8334C54.1873 47.8334 54.5264 47.6929 54.7765 47.4428C55.0265 47.1928 55.167 46.8536 55.167 46.5V45.1667H56.5003C56.8539 45.1667 57.1931 45.0262 57.4431 44.7762C57.6932 44.5261 57.8337 44.187 57.8337 43.8334C57.8337 43.4797 57.6932 43.1406 57.4431 42.8905C57.1931 42.6405 56.8539 42.5 56.5003 42.5ZM46.2337 44.7934C46.9451 44.1775 47.5157 43.4159 47.9068 42.5601C48.2979 41.7042 48.5003 40.7743 48.5003 39.8334C48.5003 38.0652 47.7979 36.3696 46.5477 35.1193C45.2975 33.8691 43.6018 33.1667 41.8337 33.1667C40.0655 33.1667 38.3699 33.8691 37.1196 35.1193C35.8694 36.3696 35.167 38.0652 35.167 39.8334C35.167 40.7743 35.3694 41.7042 35.7605 42.5601C36.1516 43.4159 36.7222 44.1775 37.4337 44.7934C35.5672 45.6385 33.9836 47.0034 32.8723 48.7247C31.761 50.4461 31.169 52.4511 31.167 54.5C31.167 54.8536 31.3075 55.1928 31.5575 55.4428C31.8076 55.6929 32.1467 55.8334 32.5003 55.8334C32.8539 55.8334 33.1931 55.6929 33.4431 55.4428C33.6932 55.1928 33.8337 54.8536 33.8337 54.5C33.8337 52.3783 34.6765 50.3435 36.1768 48.8432C37.6771 47.3429 39.7119 46.5 41.8337 46.5C43.9554 46.5 45.9902 47.3429 47.4905 48.8432C48.9908 50.3435 49.8337 52.3783 49.8337 54.5C49.8337 54.8536 49.9741 55.1928 50.2242 55.4428C50.4742 55.6929 50.8134 55.8334 51.167 55.8334C51.5206 55.8334 51.8598 55.6929 52.1098 55.4428C52.3599 55.1928 52.5003 54.8536 52.5003 54.5C52.4984 52.4511 51.9063 50.4461 50.795 48.7247C49.6837 47.0034 48.1001 45.6385 46.2337 44.7934V44.7934ZM41.8337 43.8334C41.0425 43.8334 40.2692 43.5988 39.6114 43.1592C38.9536 42.7197 38.4409 42.095 38.1381 41.3641C37.8354 40.6332 37.7562 39.8289 37.9105 39.053C38.0649 38.2771 38.4458 37.5643 39.0052 37.0049C39.5646 36.4455 40.2774 36.0646 41.0533 35.9102C41.8292 35.7559 42.6335 35.8351 43.3644 36.1378C44.0953 36.4406 44.72 36.9533 45.1595 37.6111C45.5991 38.2689 45.8337 39.0422 45.8337 39.8334C45.8337 40.8942 45.4122 41.9116 44.6621 42.6618C43.9119 43.4119 42.8945 43.8334 41.8337 43.8334Z" fill="#363738"/>
<circle cx="85.5" cy="82.5" r="16.5" fill="#06BF23"/>
<path d="M91.25 82.75C91.0511 82.75 90.8603 82.829 90.7197 82.9697C90.579 83.1103 90.5 83.3011 90.5 83.5V83.785L89.39 82.675C88.9981 82.2861 88.4683 82.068 87.9163 82.068C87.3642 82.068 86.8344 82.2861 86.4425 82.675L85.9175 83.2L84.0575 81.34C83.6601 80.9617 83.1324 80.7507 82.5838 80.7507C82.0351 80.7507 81.5074 80.9617 81.11 81.34L80 82.45V78.25C80 78.0511 80.079 77.8603 80.2197 77.7197C80.3603 77.579 80.5511 77.5 80.75 77.5H86C86.1989 77.5 86.3897 77.421 86.5303 77.2803C86.671 77.1397 86.75 76.9489 86.75 76.75C86.75 76.5511 86.671 76.3603 86.5303 76.2197C86.3897 76.079 86.1989 76 86 76H80.75C80.1533 76 79.581 76.237 79.159 76.659C78.7371 77.0809 78.5 77.6532 78.5 78.25V87.25C78.5 87.8467 78.7371 88.419 79.159 88.841C79.581 89.2629 80.1533 89.5 80.75 89.5H89.75C90.3467 89.5 90.919 89.2629 91.341 88.841C91.7629 88.419 92 87.8467 92 87.25V83.5C92 83.3011 91.921 83.1103 91.7803 82.9697C91.6397 82.829 91.4489 82.75 91.25 82.75ZM80.75 88C80.5511 88 80.3603 87.921 80.2197 87.7803C80.079 87.6397 80 87.4489 80 87.25V84.5725L82.175 82.3975C82.2852 82.2925 82.4315 82.2339 82.5838 82.2339C82.736 82.2339 82.8823 82.2925 82.9925 82.3975L85.37 84.775L88.595 88H80.75ZM90.5 87.25C90.4989 87.3936 90.4516 87.533 90.365 87.6475L86.9825 84.25L87.5075 83.725C87.5613 83.6701 87.6255 83.6265 87.6963 83.5967C87.7671 83.567 87.8432 83.5516 87.92 83.5516C87.9968 83.5516 88.0729 83.567 88.1437 83.5967C88.2146 83.6265 88.2787 83.6701 88.3325 83.725L90.5 85.9075V87.25ZM94.0325 76.2175L91.7825 73.9675C91.7112 73.8992 91.6271 73.8457 91.535 73.81C91.3524 73.735 91.1476 73.735 90.965 73.81C90.8729 73.8457 90.7888 73.8992 90.7175 73.9675L88.4675 76.2175C88.3976 76.2874 88.3421 76.3704 88.3043 76.4618C88.2664 76.5532 88.2469 76.6511 88.2469 76.75C88.2469 76.9497 88.3263 77.1413 88.4675 77.2825C88.6087 77.4237 88.8003 77.5031 89 77.5031C89.1997 77.5031 89.3913 77.4237 89.5325 77.2825L90.5 76.3075V80.5C90.5 80.6989 90.579 80.8897 90.7197 81.0303C90.8603 81.171 91.0511 81.25 91.25 81.25C91.4489 81.25 91.6397 81.171 91.7803 81.0303C91.921 80.8897 92 80.6989 92 80.5V76.3075L92.9675 77.2825C93.0372 77.3528 93.1202 77.4086 93.2116 77.4467C93.303 77.4847 93.401 77.5043 93.5 77.5043C93.599 77.5043 93.697 77.4847 93.7884 77.4467C93.8798 77.4086 93.9628 77.3528 94.0325 77.2825C94.1028 77.2128 94.1586 77.1298 94.1967 77.0384C94.2347 76.947 94.2543 76.849 94.2543 76.75C94.2543 76.651 94.2347 76.5529 94.1967 76.4616C94.1586 76.3702 94.1028 76.2872 94.0325 76.2175V76.2175Z" fill="#F9F9F9"/>
</svg>
