<svg width="331" height="194" viewBox="0 0 331 194" fill="none" xmlns="http://www.w3.org/2000/svg">
<circle cx="87.5" cy="87.5" r="87.5" fill="#4E42D3"/>
<circle cx="247" cy="31" r="29" fill="#42A7D3"/>
<circle cx="302.5" cy="102.5" r="28.5" fill="#F08142"/>
<circle cx="245" cy="165" r="29" fill="#EABE4E"/>
<path d="M70.112 92.536C70.112 92.888 70.1067 93.2347 70.096 93.576C70.096 93.9067 70.096 94.2587 70.096 94.632V95.656H66.864V94.632C66.864 94.2587 66.8587 93.9067 66.848 93.576C66.848 93.2347 66.848 92.888 66.848 92.536V86.088C66.848 85.8 66.864 85.4693 66.896 85.096C66.9387 84.712 66.976 84.3227 67.008 83.928C67.04 83.5227 67.056 83.144 67.056 82.792L67.008 79.544C67.264 79.4907 67.5307 79.4587 67.808 79.448C68.096 79.4373 68.3573 79.432 68.592 79.432C68.8267 79.432 69.072 79.4373 69.328 79.448C69.584 79.4587 69.8453 79.4907 70.112 79.544V92.536ZM65.168 94.328C65.3707 94.328 65.664 94.3387 66.048 94.36C66.432 94.3707 66.7253 94.376 66.928 94.376H70.064C70.256 94.376 70.5547 94.3707 70.96 94.36C71.376 94.3387 71.68 94.328 71.872 94.328H73.664C73.7173 94.52 73.7547 94.7387 73.776 94.984C73.7973 95.2187 73.808 95.448 73.808 95.672C73.808 95.8853 73.7973 96.1093 73.776 96.344C73.7547 96.568 73.7173 96.7867 73.664 97H62.672C62.576 96.5413 62.528 96.0987 62.528 95.672C62.528 95.1813 62.576 94.7333 62.672 94.328H65.168ZM61.712 84.568C63.1307 83.7787 64.2613 82.9627 65.104 82.12C65.9573 81.2773 66.592 80.4187 67.008 79.544L68.192 81.976C67.7547 83.0427 67.072 83.9547 66.144 84.712C65.216 85.4587 64.192 86.0613 63.072 86.52C62.7093 86.3493 62.4053 86.0827 62.16 85.72C61.9253 85.3573 61.776 84.9733 61.712 84.568ZM76.4375 88.264C76.4375 87.2507 76.4802 86.2747 76.5655 85.336C76.6615 84.3867 76.8535 83.5173 77.1415 82.728C77.4402 81.928 77.8882 81.2507 78.4855 80.696C78.9762 80.2267 79.5522 79.848 80.2135 79.56C80.8855 79.272 81.7335 79.128 82.7575 79.128C83.7922 79.128 84.6295 79.272 85.2695 79.56C85.9202 79.848 86.4962 80.232 86.9975 80.712C87.5842 81.2667 88.0215 81.9387 88.3095 82.728C88.6082 83.5173 88.8055 84.3867 88.9015 85.336C88.9975 86.2747 89.0455 87.2507 89.0455 88.264C89.0455 89.2773 88.9975 90.2533 88.9015 91.192C88.8055 92.1307 88.6082 92.9947 88.3095 93.784C88.0215 94.5627 87.5842 95.2347 86.9975 95.8C86.4962 96.28 85.9202 96.6693 85.2695 96.968C84.6188 97.2667 83.7762 97.416 82.7415 97.416C81.7175 97.416 80.8748 97.2667 80.2135 96.968C79.5628 96.6693 78.9868 96.28 78.4855 95.8C77.8988 95.2347 77.4562 94.5627 77.1575 93.784C76.8695 92.9947 76.6775 92.1307 76.5815 91.192C76.4855 90.2533 76.4375 89.2773 76.4375 88.264ZM79.7975 88.264C79.7975 89.7467 79.8722 90.9733 80.0215 91.944C80.1708 92.9147 80.4375 93.6187 80.8215 94.056C81.2588 94.6107 81.8988 94.888 82.7415 94.888C83.5948 94.888 84.2455 94.6107 84.6935 94.056C85.0668 93.6187 85.3282 92.9147 85.4775 91.944C85.6268 90.9733 85.7015 89.7467 85.7015 88.264C85.7015 86.792 85.6268 85.5707 85.4775 84.6C85.3282 83.6293 85.0668 82.92 84.6935 82.472C84.2455 81.9067 83.5948 81.624 82.7415 81.624C81.8988 81.624 81.2588 81.9067 80.8215 82.472C80.4375 82.92 80.1708 83.6293 80.0215 84.6C79.8722 85.5707 79.7975 86.792 79.7975 88.264ZM91.467 88.264C91.467 87.2507 91.5097 86.2747 91.595 85.336C91.691 84.3867 91.883 83.5173 92.171 82.728C92.4697 81.928 92.9177 81.2507 93.515 80.696C94.0057 80.2267 94.5817 79.848 95.243 79.56C95.915 79.272 96.763 79.128 97.787 79.128C98.8217 79.128 99.659 79.272 100.299 79.56C100.95 79.848 101.526 80.232 102.027 80.712C102.614 81.2667 103.051 81.9387 103.339 82.728C103.638 83.5173 103.835 84.3867 103.931 85.336C104.027 86.2747 104.075 87.2507 104.075 88.264C104.075 89.2773 104.027 90.2533 103.931 91.192C103.835 92.1307 103.638 92.9947 103.339 93.784C103.051 94.5627 102.614 95.2347 102.027 95.8C101.526 96.28 100.95 96.6693 100.299 96.968C99.6483 97.2667 98.8057 97.416 97.771 97.416C96.747 97.416 95.9043 97.2667 95.243 96.968C94.5923 96.6693 94.0163 96.28 93.515 95.8C92.9283 95.2347 92.4857 94.5627 92.187 93.784C91.899 92.9947 91.707 92.1307 91.611 91.192C91.515 90.2533 91.467 89.2773 91.467 88.264ZM94.827 88.264C94.827 89.7467 94.9017 90.9733 95.051 91.944C95.2003 92.9147 95.467 93.6187 95.851 94.056C96.2883 94.6107 96.9283 94.888 97.771 94.888C98.6243 94.888 99.275 94.6107 99.723 94.056C100.096 93.6187 100.358 92.9147 100.507 91.944C100.656 90.9733 100.731 89.7467 100.731 88.264C100.731 86.792 100.656 85.5707 100.507 84.6C100.358 83.6293 100.096 82.92 99.723 82.472C99.275 81.9067 98.6243 81.624 97.771 81.624C96.9283 81.624 96.2883 81.9067 95.851 82.472C95.467 82.92 95.2003 83.6293 95.051 84.6C94.9017 85.5707 94.827 86.792 94.827 88.264ZM127.825 91.96C127.825 93.56 127.505 94.856 126.865 95.848C126.235 96.8293 125.169 97.32 123.665 97.32C122.15 97.32 121.078 96.8187 120.449 95.816C119.819 94.8133 119.505 93.528 119.505 91.96C119.505 90.3707 119.819 89.0853 120.449 88.104C121.089 87.112 122.161 86.616 123.665 86.616C125.169 86.616 126.235 87.112 126.865 88.104C127.505 89.096 127.825 90.3813 127.825 91.96ZM122.097 91.96C122.097 92.5467 122.134 93.1013 122.209 93.624C122.283 94.136 122.433 94.552 122.657 94.872C122.891 95.192 123.233 95.352 123.681 95.352C124.118 95.352 124.449 95.1973 124.673 94.888C124.897 94.568 125.046 94.152 125.121 93.64C125.206 93.1173 125.249 92.5573 125.249 91.96C125.249 91.3627 125.206 90.808 125.121 90.296C125.046 89.784 124.897 89.3733 124.673 89.064C124.449 88.7547 124.118 88.6 123.681 88.6C123.233 88.6 122.891 88.7547 122.657 89.064C122.433 89.3733 122.283 89.784 122.209 90.296C122.134 90.808 122.097 91.3627 122.097 91.96ZM114.609 84.568C114.609 86.168 114.289 87.464 113.649 88.456C113.009 89.4373 111.942 89.928 110.449 89.928C108.923 89.928 107.846 89.4267 107.217 88.424C106.598 87.4213 106.289 86.136 106.289 84.568C106.289 82.9787 106.603 81.6933 107.233 80.712C107.873 79.72 108.945 79.224 110.449 79.224C111.942 79.224 113.009 79.72 113.649 80.712C114.289 81.704 114.609 82.9893 114.609 84.568ZM108.881 84.568C108.881 85.1547 108.918 85.7093 108.993 86.232C109.067 86.744 109.217 87.16 109.441 87.48C109.665 87.7893 110.001 87.944 110.449 87.944C110.897 87.944 111.233 87.7893 111.457 87.48C111.681 87.16 111.83 86.744 111.905 86.232C111.979 85.7093 112.017 85.1547 112.017 84.568C112.017 83.96 111.979 83.4053 111.905 82.904C111.83 82.392 111.681 81.9813 111.457 81.672C111.233 81.3627 110.897 81.208 110.449 81.208C110.001 81.208 109.665 81.3627 109.441 81.672C109.217 81.9813 109.067 82.392 108.993 82.904C108.918 83.416 108.881 83.9707 108.881 84.568ZM120.369 79.544C120.625 79.4693 120.955 79.4267 121.361 79.416C121.766 79.3947 122.161 79.3947 122.545 79.416C122.929 79.4373 123.206 79.48 123.377 79.544L113.745 97C113.478 97.0747 113.137 97.1173 112.721 97.128C112.315 97.1493 111.926 97.144 111.553 97.112C111.179 97.0907 110.902 97.0533 110.721 97L120.369 79.544Z" fill="white"/>
<path d="M231.144 30.902C231.144 30.0787 231.179 29.2857 231.248 28.523C231.326 27.7517 231.482 27.0453 231.716 26.404C231.959 25.754 232.323 25.2037 232.808 24.753C233.207 24.3717 233.675 24.064 234.212 23.83C234.758 23.596 235.447 23.479 236.279 23.479C237.12 23.479 237.8 23.596 238.32 23.83C238.849 24.064 239.317 24.376 239.724 24.766C240.201 25.2167 240.556 25.7627 240.79 26.404C241.033 27.0453 241.193 27.7517 241.271 28.523C241.349 29.2857 241.388 30.0787 241.388 30.902C241.388 31.7253 241.349 32.5183 241.271 33.281C241.193 34.0437 241.033 34.7457 240.79 35.387C240.556 36.0197 240.201 36.5657 239.724 37.025C239.317 37.415 238.849 37.7313 238.32 37.974C237.791 38.2167 237.107 38.338 236.266 38.338C235.434 38.338 234.749 38.2167 234.212 37.974C233.683 37.7313 233.215 37.415 232.808 37.025C232.331 36.5657 231.972 36.0197 231.729 35.387C231.495 34.7457 231.339 34.0437 231.261 33.281C231.183 32.5183 231.144 31.7253 231.144 30.902ZM233.874 30.902C233.874 32.1067 233.935 33.1033 234.056 33.892C234.177 34.6807 234.394 35.2527 234.706 35.608C235.061 36.0587 235.581 36.284 236.266 36.284C236.959 36.284 237.488 36.0587 237.852 35.608C238.155 35.2527 238.368 34.6807 238.489 33.892C238.61 33.1033 238.671 32.1067 238.671 30.902C238.671 29.706 238.61 28.7137 238.489 27.925C238.368 27.1363 238.155 26.56 237.852 26.196C237.488 25.7367 236.959 25.507 236.266 25.507C235.581 25.507 235.061 25.7367 234.706 26.196C234.394 26.56 234.177 27.1363 234.056 27.925C233.935 28.7137 233.874 29.706 233.874 30.902ZM260.608 33.905C260.608 35.205 260.348 36.258 259.828 37.064C259.317 37.8613 258.45 38.26 257.228 38.26C255.997 38.26 255.126 37.8527 254.615 37.038C254.104 36.2233 253.848 35.179 253.848 33.905C253.848 32.6137 254.104 31.5693 254.615 30.772C255.135 29.966 256.006 29.563 257.228 29.563C258.45 29.563 259.317 29.966 259.828 30.772C260.348 31.578 260.608 32.6223 260.608 33.905ZM255.954 33.905C255.954 34.3817 255.984 34.8323 256.045 35.257C256.106 35.673 256.227 36.011 256.409 36.271C256.6 36.531 256.877 36.661 257.241 36.661C257.596 36.661 257.865 36.5353 258.047 36.284C258.229 36.024 258.35 35.686 258.411 35.27C258.48 34.8453 258.515 34.3903 258.515 33.905C258.515 33.4197 258.48 32.969 258.411 32.553C258.35 32.137 258.229 31.8033 258.047 31.552C257.865 31.3007 257.596 31.175 257.241 31.175C256.877 31.175 256.6 31.3007 256.409 31.552C256.227 31.8033 256.106 32.137 256.045 32.553C255.984 32.969 255.954 33.4197 255.954 33.905ZM249.87 27.899C249.87 29.199 249.61 30.252 249.09 31.058C248.57 31.8553 247.703 32.254 246.49 32.254C245.251 32.254 244.375 31.8467 243.864 31.032C243.361 30.2173 243.11 29.173 243.11 27.899C243.11 26.6077 243.366 25.5633 243.877 24.766C244.397 23.96 245.268 23.557 246.49 23.557C247.703 23.557 248.57 23.96 249.09 24.766C249.61 25.572 249.87 26.6163 249.87 27.899ZM245.216 27.899C245.216 28.3757 245.246 28.8263 245.307 29.251C245.368 29.667 245.489 30.005 245.671 30.265C245.853 30.5163 246.126 30.642 246.49 30.642C246.854 30.642 247.127 30.5163 247.309 30.265C247.491 30.005 247.612 29.667 247.673 29.251C247.734 28.8263 247.764 28.3757 247.764 27.899C247.764 27.405 247.734 26.9543 247.673 26.547C247.612 26.131 247.491 25.7973 247.309 25.546C247.127 25.2947 246.854 25.169 246.49 25.169C246.126 25.169 245.853 25.2947 245.671 25.546C245.489 25.7973 245.368 26.131 245.307 26.547C245.246 26.963 245.216 27.4137 245.216 27.899ZM254.55 23.817C254.758 23.7563 255.027 23.7217 255.356 23.713C255.685 23.6957 256.006 23.6957 256.318 23.713C256.63 23.7303 256.855 23.765 256.994 23.817L249.168 38C248.951 38.0607 248.674 38.0953 248.336 38.104C248.007 38.1213 247.69 38.117 247.387 38.091C247.084 38.0737 246.858 38.0433 246.711 38L254.55 23.817Z" fill="white"/>
<path d="M287.144 102.902C287.144 102.079 287.179 101.286 287.248 100.523C287.326 99.7517 287.482 99.0453 287.716 98.404C287.959 97.754 288.323 97.2037 288.808 96.753C289.207 96.3717 289.675 96.064 290.212 95.83C290.758 95.596 291.447 95.479 292.279 95.479C293.12 95.479 293.8 95.596 294.32 95.83C294.849 96.064 295.317 96.376 295.724 96.766C296.201 97.2167 296.556 97.7627 296.79 98.404C297.033 99.0453 297.193 99.7517 297.271 100.523C297.349 101.286 297.388 102.079 297.388 102.902C297.388 103.725 297.349 104.518 297.271 105.281C297.193 106.044 297.033 106.746 296.79 107.387C296.556 108.02 296.201 108.566 295.724 109.025C295.317 109.415 294.849 109.731 294.32 109.974C293.791 110.217 293.107 110.338 292.266 110.338C291.434 110.338 290.749 110.217 290.212 109.974C289.683 109.731 289.215 109.415 288.808 109.025C288.331 108.566 287.972 108.02 287.729 107.387C287.495 106.746 287.339 106.044 287.261 105.281C287.183 104.518 287.144 103.725 287.144 102.902ZM289.874 102.902C289.874 104.107 289.935 105.103 290.056 105.892C290.177 106.681 290.394 107.253 290.706 107.608C291.061 108.059 291.581 108.284 292.266 108.284C292.959 108.284 293.488 108.059 293.852 107.608C294.155 107.253 294.368 106.681 294.489 105.892C294.61 105.103 294.671 104.107 294.671 102.902C294.671 101.706 294.61 100.714 294.489 99.925C294.368 99.1363 294.155 98.56 293.852 98.196C293.488 97.7367 292.959 97.507 292.266 97.507C291.581 97.507 291.061 97.7367 290.706 98.196C290.394 98.56 290.177 99.1363 290.056 99.925C289.935 100.714 289.874 101.706 289.874 102.902ZM316.608 105.905C316.608 107.205 316.348 108.258 315.828 109.064C315.317 109.861 314.45 110.26 313.228 110.26C311.997 110.26 311.126 109.853 310.615 109.038C310.104 108.223 309.848 107.179 309.848 105.905C309.848 104.614 310.104 103.569 310.615 102.772C311.135 101.966 312.006 101.563 313.228 101.563C314.45 101.563 315.317 101.966 315.828 102.772C316.348 103.578 316.608 104.622 316.608 105.905ZM311.954 105.905C311.954 106.382 311.984 106.832 312.045 107.257C312.106 107.673 312.227 108.011 312.409 108.271C312.6 108.531 312.877 108.661 313.241 108.661C313.596 108.661 313.865 108.535 314.047 108.284C314.229 108.024 314.35 107.686 314.411 107.27C314.48 106.845 314.515 106.39 314.515 105.905C314.515 105.42 314.48 104.969 314.411 104.553C314.35 104.137 314.229 103.803 314.047 103.552C313.865 103.301 313.596 103.175 313.241 103.175C312.877 103.175 312.6 103.301 312.409 103.552C312.227 103.803 312.106 104.137 312.045 104.553C311.984 104.969 311.954 105.42 311.954 105.905ZM305.87 99.899C305.87 101.199 305.61 102.252 305.09 103.058C304.57 103.855 303.703 104.254 302.49 104.254C301.251 104.254 300.375 103.847 299.864 103.032C299.361 102.217 299.11 101.173 299.11 99.899C299.11 98.6077 299.366 97.5633 299.877 96.766C300.397 95.96 301.268 95.557 302.49 95.557C303.703 95.557 304.57 95.96 305.09 96.766C305.61 97.572 305.87 98.6163 305.87 99.899ZM301.216 99.899C301.216 100.376 301.246 100.826 301.307 101.251C301.368 101.667 301.489 102.005 301.671 102.265C301.853 102.516 302.126 102.642 302.49 102.642C302.854 102.642 303.127 102.516 303.309 102.265C303.491 102.005 303.612 101.667 303.673 101.251C303.734 100.826 303.764 100.376 303.764 99.899C303.764 99.405 303.734 98.9543 303.673 98.547C303.612 98.131 303.491 97.7973 303.309 97.546C303.127 97.2947 302.854 97.169 302.49 97.169C302.126 97.169 301.853 97.2947 301.671 97.546C301.489 97.7973 301.368 98.131 301.307 98.547C301.246 98.963 301.216 99.4137 301.216 99.899ZM310.55 95.817C310.758 95.7563 311.027 95.7217 311.356 95.713C311.685 95.6957 312.006 95.6957 312.318 95.713C312.63 95.7303 312.855 95.765 312.994 95.817L305.168 110C304.951 110.061 304.674 110.095 304.336 110.104C304.007 110.121 303.69 110.117 303.387 110.091C303.084 110.074 302.858 110.043 302.711 110L310.55 95.817Z" fill="white"/>
<path d="M231.144 164.902C231.144 164.079 231.179 163.286 231.248 162.523C231.326 161.752 231.482 161.045 231.716 160.404C231.959 159.754 232.323 159.204 232.808 158.753C233.207 158.372 233.675 158.064 234.212 157.83C234.758 157.596 235.447 157.479 236.279 157.479C237.12 157.479 237.8 157.596 238.32 157.83C238.849 158.064 239.317 158.376 239.724 158.766C240.201 159.217 240.556 159.763 240.79 160.404C241.033 161.045 241.193 161.752 241.271 162.523C241.349 163.286 241.388 164.079 241.388 164.902C241.388 165.725 241.349 166.518 241.271 167.281C241.193 168.044 241.033 168.746 240.79 169.387C240.556 170.02 240.201 170.566 239.724 171.025C239.317 171.415 238.849 171.731 238.32 171.974C237.791 172.217 237.107 172.338 236.266 172.338C235.434 172.338 234.749 172.217 234.212 171.974C233.683 171.731 233.215 171.415 232.808 171.025C232.331 170.566 231.972 170.02 231.729 169.387C231.495 168.746 231.339 168.044 231.261 167.281C231.183 166.518 231.144 165.725 231.144 164.902ZM233.874 164.902C233.874 166.107 233.935 167.103 234.056 167.892C234.177 168.681 234.394 169.253 234.706 169.608C235.061 170.059 235.581 170.284 236.266 170.284C236.959 170.284 237.488 170.059 237.852 169.608C238.155 169.253 238.368 168.681 238.489 167.892C238.61 167.103 238.671 166.107 238.671 164.902C238.671 163.706 238.61 162.714 238.489 161.925C238.368 161.136 238.155 160.56 237.852 160.196C237.488 159.737 236.959 159.507 236.266 159.507C235.581 159.507 235.061 159.737 234.706 160.196C234.394 160.56 234.177 161.136 234.056 161.925C233.935 162.714 233.874 163.706 233.874 164.902ZM260.608 167.905C260.608 169.205 260.348 170.258 259.828 171.064C259.317 171.861 258.45 172.26 257.228 172.26C255.997 172.26 255.126 171.853 254.615 171.038C254.104 170.223 253.848 169.179 253.848 167.905C253.848 166.614 254.104 165.569 254.615 164.772C255.135 163.966 256.006 163.563 257.228 163.563C258.45 163.563 259.317 163.966 259.828 164.772C260.348 165.578 260.608 166.622 260.608 167.905ZM255.954 167.905C255.954 168.382 255.984 168.832 256.045 169.257C256.106 169.673 256.227 170.011 256.409 170.271C256.6 170.531 256.877 170.661 257.241 170.661C257.596 170.661 257.865 170.535 258.047 170.284C258.229 170.024 258.35 169.686 258.411 169.27C258.48 168.845 258.515 168.39 258.515 167.905C258.515 167.42 258.48 166.969 258.411 166.553C258.35 166.137 258.229 165.803 258.047 165.552C257.865 165.301 257.596 165.175 257.241 165.175C256.877 165.175 256.6 165.301 256.409 165.552C256.227 165.803 256.106 166.137 256.045 166.553C255.984 166.969 255.954 167.42 255.954 167.905ZM249.87 161.899C249.87 163.199 249.61 164.252 249.09 165.058C248.57 165.855 247.703 166.254 246.49 166.254C245.251 166.254 244.375 165.847 243.864 165.032C243.361 164.217 243.11 163.173 243.11 161.899C243.11 160.608 243.366 159.563 243.877 158.766C244.397 157.96 245.268 157.557 246.49 157.557C247.703 157.557 248.57 157.96 249.09 158.766C249.61 159.572 249.87 160.616 249.87 161.899ZM245.216 161.899C245.216 162.376 245.246 162.826 245.307 163.251C245.368 163.667 245.489 164.005 245.671 164.265C245.853 164.516 246.126 164.642 246.49 164.642C246.854 164.642 247.127 164.516 247.309 164.265C247.491 164.005 247.612 163.667 247.673 163.251C247.734 162.826 247.764 162.376 247.764 161.899C247.764 161.405 247.734 160.954 247.673 160.547C247.612 160.131 247.491 159.797 247.309 159.546C247.127 159.295 246.854 159.169 246.49 159.169C246.126 159.169 245.853 159.295 245.671 159.546C245.489 159.797 245.368 160.131 245.307 160.547C245.246 160.963 245.216 161.414 245.216 161.899ZM254.55 157.817C254.758 157.756 255.027 157.722 255.356 157.713C255.685 157.696 256.006 157.696 256.318 157.713C256.63 157.73 256.855 157.765 256.994 157.817L249.168 172C248.951 172.061 248.674 172.095 248.336 172.104C248.007 172.121 247.69 172.117 247.387 172.091C247.084 172.074 246.858 172.043 246.711 172L254.55 157.817Z" fill="white"/>
</svg>
