<svg width="110" height="66" viewBox="0 0 110 66" fill="none" xmlns="http://www.w3.org/2000/svg">
<path d="M1.5 0.999985L15.4944 16.5145C16.2959 17.4031 17.6933 17.3936 18.4827 16.4941L21.7196 12.8055C22.5439 11.8662 24.0182 11.9045 24.7926 12.8854L30.8118 20.5095C31.7114 21.649 33.4872 21.4804 34.1564 20.192L36.4199 15.8343C37.1181 14.49 38.9993 14.3797 39.8497 15.6332L48.3624 28.1799C48.983 29.0947 50.228 29.3325 51.1421 28.7108L58.255 23.8738C59.1039 23.2965 60.2521 23.4557 60.9119 24.2423L73.0043 38.6578C73.5873 39.3528 74.5651 39.5683 75.3863 39.1829L87.2176 33.6302C88.1515 33.1919 89.2654 33.5358 89.7897 34.4242L104.993 60.1837" stroke="#D34242" stroke-width="2"/>
<circle opacity="0.16" r="4.5" transform="matrix(1 0 0 -1 105 60.1837)" fill="#D34242" stroke="#D34242"/>
<circle r="1.5" transform="matrix(1 0 0 -1 105 60.1837)" fill="#D34242" stroke="#D34242"/>
</svg>
