<svg width="294" height="294" viewBox="0 0 294 294" fill="none" xmlns="http://www.w3.org/2000/svg">
<path d="M146.827 42.0092C168.936 41.9706 190.49 48.9323 208.399 61.8963L147.01 146.701L146.827 42.0092Z" fill="#06BF23"/>
<path d="M208.383 61.8847C226.294 74.8453 239.643 93.1436 246.516 114.157L147.01 146.701L208.383 61.8847Z" fill="#F2F3F5"/>
<path d="M246.268 113.41C253.299 134.371 253.513 157.02 246.88 178.111L147.01 146.701L246.268 113.41Z" fill="#F2F3F5"/>
<path d="M246.885 178.092C240.256 199.184 227.12 217.635 209.36 230.802L147.01 146.702L246.885 178.092Z" fill="#F2F3F5"/>
<path d="M246.268 113.41C253.298 134.371 253.512 157.02 246.879 178.111L147.01 146.701L246.268 113.41Z" fill="#06BF23"/>
<path d="M246.886 178.092C240.257 199.184 227.121 217.635 209.361 230.802L147.01 146.702L246.886 178.092Z" fill="#F2F3F5"/>
<path d="M209.49 230.706C190.861 244.562 168.154 251.832 144.942 251.373L147.01 146.701L209.49 230.706Z" fill="#E1E3E6"/>
</svg>
